Coordinates
version=1
nRows=13
nColumns=36
inDegrees=yes

Units are S.I. units (second, meters, Newtons, ...)
If the header above contains a line with 'inDegrees', this indicates whether rotational values are in degrees (yes) or radians (no).

endheader
time	pelvis_tilt	pelvis_list	pelvis_rotation	pelvis_tx	pelvis_ty	pelvis_tz	hip_flexion_r	hip_adduction_r	hip_rotation_r	knee_angle_r	knee_angle_r_beta	ankle_angle_r	subtalar_angle_r	mtp_angle_r	hip_flexion_l	hip_adduction_l	hip_rotation_l	knee_angle_l	knee_angle_l_beta	ankle_angle_l	subtalar_angle_l	mtp_angle_l	lumbar_extension	lumbar_bending	lumbar_rotation	arm_flex_r	arm_add_r	arm_rot_r	elbow_flex_r	pro_sup_r	arm_flex_l	arm_add_l	arm_rot_l	elbow_flex_l	pro_sup_l
      3.46666670	     -5.89709750	      2.87829568	     -1.48470921	     -0.15314016	      0.91705145	      0.12213854	      6.13619017	    -10.01218257	     -1.82811528	      0.35756402	      0.00624067	      1.55722059	     -8.37541768	     -7.49999987	      4.62593982	    -10.54991147	    -18.67170056	      0.31367606	      0.00547468	      0.78177400	      2.09177193	     -7.49999987	      3.11652655	     -0.48989631	      1.31794508	     65.96816038	     15.22909583	     67.57944909	    119.04314189	     93.64851152	     46.38078482	     10.29279504	     52.97318983	    123.10220433	     73.94183863
      3.48333330	     -5.85417231	      2.86216135	     -1.51378285	     -0.15042348	      0.91489058	      0.12132206	      6.06524344	    -10.01672520	     -2.13283671	      0.36324677	      0.00633985	      1.64785103	     -8.07939972	     -7.49999987	      4.52540294	    -10.53941482	    -18.42316759	      0.30789728	      0.00537382	      0.71693348	      1.67645299	     -7.49999987	      3.17963556	     -0.45316798	      1.21312374	     65.95457359	     15.26877443	     67.58243198	    119.47765569	     91.58269472	     46.23567743	     10.54516418	     52.97610375	    123.15117320	     73.29725343
      3.50000000	     -5.91810772	      2.82680457	     -1.57991944	     -0.15216653	      0.91781782	      0.12287739	      6.19125637	     -9.93487049	     -1.72816775	      0.36741380	      0.00641258	      1.51933516	     -8.52188609	     -7.49999987	      4.57204681	    -10.60267906	    -18.57406487	      0.30251264	      0.00527984	      0.88416863	      1.93264271	     -7.49999987	      3.24603371	     -0.41382654	      1.58847122	     66.00668797	     15.19738560	     67.50986037	    119.54612193	     96.56869946	     46.12705526	     10.91245938	     53.48986086	    123.66364286	     75.43711515
      3.51666670	     -5.89386336	      2.80859523	     -1.49236687	     -0.15206795	      0.91831044	      0.12208532	      6.13964229	     -9.95458985	     -2.21754287	      0.36576169	      0.00638375	      1.99875222	     -7.63498040	     -7.49999987	      4.56621108	    -10.60698679	    -18.04596212	      0.29850614	      0.00520991	      0.73955588	      1.20224843	     -7.49999987	      3.10983586	     -0.38121610	      1.58949232	     66.11791426	     15.12659404	     67.58241323	    119.62167597	     96.13851027	     46.11870244	     11.07024529	     53.92481930	    124.36870698	     75.09700130
      3.53333330	     -5.95038646	      2.78616148	     -1.53009222	     -0.15170653	      0.91673130	      0.12167795	      6.20377896	     -9.91450407	     -1.90686702	      0.35943434	      0.00627331	      1.75600239	     -8.21269724	     -7.49999987	      4.58524592	    -10.64651669	    -18.39578228	      0.29537857	      0.00515533	      1.15419659	      2.00241577	     -7.49999987	      3.19334717	     -0.33161969	      1.70908566	     66.20020381	     15.03780642	     67.86247275	    119.41371967	     93.65518644	     46.18149700	     11.27915955	     54.60974685	    124.43001167	     74.50085200
      3.55000000	     -6.02027752	      2.80522016	     -1.47851057	     -0.15215891	      0.91636358	      0.12100036	      6.26632566	     -9.95867310	     -1.93663026	      0.35837529	      0.00625483	      1.88591973	     -8.14872238	     -7.49999987	      4.69501421	    -10.60456683	    -18.42611356	      0.29327121	      0.00511855	      1.34404131	      2.14012959	     -7.49999987	      3.13508179	     -0.29054211	      1.80749702	     66.30167562	     14.84644276	     67.76366647	    119.33519940	     93.03136761	     46.39008509	     11.38157572	     55.03876617	    124.79375716	     74.19488375
      3.56666670	     -6.27438218	      2.82826859	     -1.43098928	     -0.15272805	      0.91784208	      0.12187475	      6.55769277	     -9.98973177	     -1.80158464	      0.35739222	      0.00623767	      1.53028436	     -8.72416657	     -7.49999987	      4.99911359	    -10.56561436	    -18.21850130	      0.28967461	      0.00505578	      1.20088130	      1.72000999	     -7.49999987	      3.27299339	     -0.30565025	      1.73861013	     66.09828854	     14.72010081	     67.84841244	    119.30323119	     91.89715918	     46.40129931	     11.11801860	     54.89316639	    124.62959417	     73.62143021
      3.58333330	     -6.30636899	      2.80266319	     -1.39779701	     -0.15079317	      0.91617012	      0.12210974	      6.56661946	     -9.95601051	     -1.78921986	      0.36834418	      0.00642882	      1.56532253	     -8.71894866	     -7.49999987	      5.03198152	    -10.60115493	    -18.22073847	      0.29068952	      0.00507349	      1.27190175	      1.73680194	     -7.49999987	      3.23071303	     -0.30568089	      1.72430284	     66.10793728	     14.70600086	     67.85036636	    119.28213625	     91.92633844	     46.43191027	     11.14763033	     54.90876554	    124.64360617	     73.63650594
      3.60000000	     -6.28090574	      2.73982792	     -1.38248750	     -0.14993411	      0.91797986	      0.12199424	      6.47035564	     -9.88267948	     -1.97107750	      0.34400167	      0.00600396	      1.70653412	     -8.37435353	     -7.49999987	      4.96285311	    -10.68466233	    -18.50823277	      0.28215894	      0.00492460	      1.60363367	      2.44765390	     -7.49999987	      3.18567871	     -0.19419745	      1.67312097	     65.94659977	     14.76464600	     67.81624271	    119.22982657	     97.07989973	     46.54972355	     11.10360717	     55.04428458	    124.27695432	     76.34120493
      3.61666670	     -6.34434621	      2.72416870	     -1.37845759	     -0.15030517	      0.91782481	      0.12160968	      6.50453515	     -9.86982946	     -2.05795566	      0.33597106	      0.00586380	      1.65926545	     -8.30612060	     -7.49999987	      5.01255483	    -10.69324238	    -18.60891203	      0.27917657	      0.00487255	      1.72965792	      2.64597430	     -7.49999987	      3.21969063	     -0.15316167	      1.67058569	     65.75771656	     14.68352193	     67.87955499	    119.16517284	     95.40666225	     46.57472198	     10.85538855	     54.53541471	    123.48911415	     75.53373814
      3.63333330	     -6.35561408	      2.72289266	     -1.38400198	     -0.14973525	      0.91645871	      0.12147228	      6.47963165	     -9.87489721	     -1.99164431	      0.33122175	      0.00578091	      1.71485231	     -8.35901890	     -7.49999987	      4.97903277	    -10.68049648	    -18.68167155	      0.28055604	      0.00489663	      1.75714205	      2.75639106	     -7.49999987	      3.23652072	     -0.14831839	      1.69474502	     65.87202548	     14.68193987	     68.07405144	    119.24804189	     94.99182810	     46.49099181	     11.10017023	     54.99378028	    124.05917565	     75.40755025
      3.65000000	     -6.42022586	      2.70382033	     -1.37804437	     -0.14973261	      0.91713921	      0.12137934	      6.52276832	     -9.86329393	     -2.04221865	      0.32841043	      0.00573184	      1.73993626	     -8.26145434	     -7.49999987	      5.01002554	    -10.69250524	    -18.67249112	      0.27936803	      0.00487589	      1.79601135	      2.68838370	     -7.49999987	      3.25372199	     -0.11260800	      1.75514560	     65.81581974	     14.71078119	     67.92115161	    119.17455483	     96.65141623	     46.52938638	     10.92594061	     54.70253045	    123.72787789	     76.00736515
      3.66666670	     -6.44263788	      2.71437901	     -1.37504467	     -0.14954111	      0.91654409	      0.12124579	      6.50782414	     -9.88770323	     -1.99902198	      0.32834031	      0.00573062	      1.77592202	     -8.28395515	     -7.49999987	      5.01003185	    -10.66397912	    -18.66152294	      0.28226722	      0.00492649	      1.79932924	      2.66285340	     -7.49999987	      3.23295481	     -0.14209139	      1.67308189	     65.87512882	     14.72531278	     67.92555725	    119.20393081	     96.34737657	     46.66803555	     10.80824107	     54.27988756	    123.60695693	     75.82643616
